<svg id="visual" viewBox="0 0 960 300" width="960" height="300" xmlns="http://www.w3.org/2000/svg" xmlns:xlink="http://www.w3.org/1999/xlink" version="1.1"><rect x="0" y="0" width="960" height="300" fill="#F5F5F5"></rect><path d="M0 114L22.8 118.2C45.7 122.3 91.3 130.7 137 130.3C182.7 130 228.3 121 274 121.7C319.7 122.3 365.3 132.7 411.2 130.2C457 127.7 503 112.3 548.8 108.3C594.7 104.3 640.3 111.7 686 116.7C731.7 121.7 777.3 124.3 823 127C868.7 129.7 914.3 132.3 937.2 133.7L960 135L960 0L937.2 0C914.3 0 868.7 0 823 0C777.3 0 731.7 0 686 0C640.3 0 594.7 0 548.8 0C503 0 457 0 411.2 0C365.3 0 319.7 0 274 0C228.3 0 182.7 0 137 0C91.3 0 45.7 0 22.8 0L0 0Z" fill="#00883a"></path><path d="M0 71L22.8 74.3C45.7 77.7 91.3 84.3 137 85C182.7 85.7 228.3 80.3 274 82.5C319.7 84.7 365.3 94.3 411.2 94.2C457 94 503 84 548.8 78.3C594.7 72.7 640.3 71.3 686 75.5C731.7 79.7 777.3 89.3 823 94.5C868.7 99.7 914.3 100.3 937.2 100.7L960 101L960 0L937.2 0C914.3 0 868.7 0 823 0C777.3 0 731.7 0 686 0C640.3 0 594.7 0 548.8 0C503 0 457 0 411.2 0C365.3 0 319.7 0 274 0C228.3 0 182.7 0 137 0C91.3 0 45.7 0 22.8 0L0 0Z" fill="#226534"></path><path d="M0 74L22.8 72.3C45.7 70.7 91.3 67.3 137 67.8C182.7 68.3 228.3 72.7 274 69.3C319.7 66 365.3 55 411.2 51.7C457 48.3 503 52.7 548.8 56.2C594.7 59.7 640.3 62.3 686 60.3C731.7 58.3 777.3 51.7 823 54.8C868.7 58 914.3 71 937.2 77.5L960 84L960 0L937.2 0C914.3 0 868.7 0 823 0C777.3 0 731.7 0 686 0C640.3 0 594.7 0 548.8 0C503 0 457 0 411.2 0C365.3 0 319.7 0 274 0C228.3 0 182.7 0 137 0C91.3 0 45.7 0 22.8 0L0 0Z" fill="#27432c"></path><path d="M0 22L22.8 23C45.7 24 91.3 26 137 26.8C182.7 27.7 228.3 27.3 274 25.8C319.7 24.3 365.3 21.7 411.2 24.5C457 27.3 503 35.7 548.8 40.8C594.7 46 640.3 48 686 46.3C731.7 44.7 777.3 39.3 823 35.8C868.7 32.3 914.3 30.7 937.2 29.8L960 29L960 0L937.2 0C914.3 0 868.7 0 823 0C777.3 0 731.7 0 686 0C640.3 0 594.7 0 548.8 0C503 0 457 0 411.2 0C365.3 0 319.7 0 274 0C228.3 0 182.7 0 137 0C91.3 0 45.7 0 22.8 0L0 0Z" fill="#232323"></path></svg>