<svg id="visual" viewBox="0 0 960 100" width="960" height="100" xmlns="http://www.w3.org/2000/svg" xmlns:xlink="http://www.w3.org/1999/xlink" version="1.1"><rect x="0" y="0" width="960" height="100" fill="#F5F5F5"></rect><path d="M0 80L17.8 80C35.7 80 71.3 80 106.8 76.2C142.3 72.3 177.7 64.7 213.2 62.3C248.7 60 284.3 63 320 64.5C355.7 66 391.3 66 426.8 63.7C462.3 61.3 497.7 56.7 533.2 57.5C568.7 58.3 604.3 64.7 640 64.8C675.7 65 711.3 59 746.8 58.8C782.3 58.7 817.7 64.3 853.2 63.5C888.7 62.7 924.3 55.3 942.2 51.7L960 48L960 0L942.2 0C924.3 0 888.7 0 853.2 0C817.7 0 782.3 0 746.8 0C711.3 0 675.7 0 640 0C604.3 0 568.7 0 533.2 0C497.7 0 462.3 0 426.8 0C391.3 0 355.7 0 320 0C284.3 0 248.7 0 213.2 0C177.7 0 142.3 0 106.8 0C71.3 0 35.7 0 17.8 0L0 0Z" fill="#00883a"></path><path d="M0 50L17.8 49.8C35.7 49.7 71.3 49.3 106.8 51.8C142.3 54.3 177.7 59.7 213.2 59.2C248.7 58.7 284.3 52.3 320 49C355.7 45.7 391.3 45.3 426.8 47.5C462.3 49.7 497.7 54.3 533.2 53.7C568.7 53 604.3 47 640 42.5C675.7 38 711.3 35 746.8 34.3C782.3 33.7 817.7 35.3 853.2 37.5C888.7 39.7 924.3 42.3 942.2 43.7L960 45L960 0L942.2 0C924.3 0 888.7 0 853.2 0C817.7 0 782.3 0 746.8 0C711.3 0 675.7 0 640 0C604.3 0 568.7 0 533.2 0C497.7 0 462.3 0 426.8 0C391.3 0 355.7 0 320 0C284.3 0 248.7 0 213.2 0C177.7 0 142.3 0 106.8 0C71.3 0 35.7 0 17.8 0L0 0Z" fill="#265430"></path><path d="M0 30L17.8 28.2C35.7 26.3 71.3 22.7 106.8 19.5C142.3 16.3 177.7 13.7 213.2 13.5C248.7 13.3 284.3 15.7 320 19.2C355.7 22.7 391.3 27.3 426.8 25.5C462.3 23.7 497.7 15.3 533.2 14.7C568.7 14 604.3 21 640 21.3C675.7 21.7 711.3 15.3 746.8 14.5C782.3 13.7 817.7 18.3 853.2 23.2C888.7 28 924.3 33 942.2 35.5L960 38L960 0L942.2 0C924.3 0 888.7 0 853.2 0C817.7 0 782.3 0 746.8 0C711.3 0 675.7 0 640 0C604.3 0 568.7 0 533.2 0C497.7 0 462.3 0 426.8 0C391.3 0 355.7 0 320 0C284.3 0 248.7 0 213.2 0C177.7 0 142.3 0 106.8 0C71.3 0 35.7 0 17.8 0L0 0Z" fill="#232323"></path></svg>